<?xml version="1.0" standalone="no"?>
<!DOCTYPE svg PUBLIC "-//W3C//DTD SVG 20010904//EN"
 "http://www.w3.org/TR/2001/REC-SVG-20010904/DTD/svg10.dtd">
<svg version="1.0" xmlns="http://www.w3.org/2000/svg"
 width="408.000000pt" height="612.000000pt" viewBox="0 0 408.000000 612.000000"
 preserveAspectRatio="xMidYMid meet">

<g transform="translate(0.000000,612.000000) scale(0.100000,-0.100000)"
fill="#000000" stroke="none">
<path d="M1966 4399 c-54 -9 -112 -23 -128 -30 -70 -29 -171 -174 -211 -304
-8 -27 -18 -100 -21 -162 -6 -114 -10 -130 -66 -268 -39 -94 -48 -183 -30
-279 17 -93 11 -108 -56 -140 -64 -30 -141 -91 -150 -119 -8 -27 23 -70 47
-64 10 3 22 1 25 -5 4 -5 21 -7 40 -3 39 7 78 -10 70 -31 -3 -8 0 -14 7 -15 7
0 -4 -6 -23 -12 l-35 -10 29 -6 c35 -7 41 -25 10 -29 -11 -2 -36 -17 -54 -34
-30 -26 -32 -31 -17 -40 9 -5 17 -14 17 -21 0 -7 9 -18 20 -25 27 -17 25 -28
-7 -40 -76 -26 -171 -78 -170 -92 1 -8 -4 -41 -11 -73 -18 -77 -12 -103 14
-60 38 66 40 50 19 -152 -7 -77 -17 -174 -20 -215 -7 -87 -25 -232 -30 -240
-2 -4 -9 -67 -15 -141 -7 -74 -18 -152 -26 -174 -7 -22 -14 -49 -14 -60 0 -11
-7 -29 -15 -39 -8 -10 -12 -23 -9 -27 6 -11 -20 -61 -40 -78 -9 -8 -16 -21
-16 -31 0 -10 -7 -23 -15 -30 -8 -7 -15 -26 -15 -42 0 -16 -6 -44 -14 -62 -8
-18 -17 -73 -21 -122 -4 -49 -8 -109 -11 -134 -2 -25 -5 -78 -8 -117 -2 -40
-7 -77 -10 -82 -4 -5 -2 -12 4 -16 6 -4 8 -11 4 -16 -3 -5 -10 -7 -15 -4 -5 4
-9 2 -9 -3 0 -6 7 -13 16 -16 11 -4 13 -10 6 -22 -5 -9 -7 -25 -5 -35 4 -14 0
-19 -13 -19 -18 -1 -18 -1 0 -15 17 -13 18 -15 3 -15 -21 0 -22 -26 -2 -63 8
-15 11 -25 6 -23 -4 3 -8 -10 -9 -29 -1 -22 3 -35 11 -35 9 0 9 -2 1 -8 -7 -4
-14 -35 -15 -70 -3 -50 -1 -62 11 -62 12 0 12 -2 2 -9 -19 -12 -3 -18 165 -61
l142 -36 4 225 c2 124 11 323 20 441 33 443 40 569 40 735 -1 94 -6 186 -11
205 l-10 35 -1 -35 c-1 -26 -4 -31 -11 -20 -7 11 -10 6 -10 -20 0 -19 -5 -42
-10 -50 -13 -20 -13 0 0 100 6 41 17 187 25 325 17 273 22 316 36 294 11 -16
4 41 -17 149 -8 41 -12 78 -9 82 3 4 29 11 58 15 28 3 79 13 112 20 103 24
132 28 115 16 -13 -10 -13 -12 0 -21 8 -5 10 -10 4 -10 -5 0 -19 -7 -30 -15
-18 -14 -18 -14 4 -8 13 3 22 1 22 -7 0 -18 73 -8 88 13 10 13 17 15 27 7 9
-7 16 -6 25 5 43 51 59 -9 70 -268 5 -111 16 -251 25 -312 8 -60 15 -155 15
-210 0 -55 4 -152 9 -215 19 -230 24 -433 12 -426 -13 8 -15 -6 -2 -20 5 -5
11 -28 15 -50 4 -32 2 -43 -9 -48 -8 -3 -15 -17 -15 -31 0 -56 -25 -14 -50 85
-15 58 -47 150 -70 205 -46 108 -111 274 -166 425 -19 52 -42 110 -50 128 -8
18 -21 46 -28 63 l-13 30 0 -45 c0 -25 3 -46 7 -46 12 0 24 -90 23 -181 0 -94
-9 -143 -23 -134 -11 7 -25 -65 -45 -230 -8 -71 -20 -148 -25 -170 -5 -22 -10
-56 -10 -76 0 -20 -7 -53 -15 -72 -11 -27 -12 -37 -2 -40 9 -4 9 -8 -1 -15 -8
-5 -15 -37 -17 -81 -2 -40 -7 -81 -10 -91 -3 -10 -8 -38 -10 -62 -2 -24 -7
-59 -12 -78 -5 -19 -6 -48 -3 -65 7 -35 3 -375 -6 -485 -4 -41 -9 -103 -11
-137 l-5 -63 521 0 521 0 1 48 c0 26 0 78 -1 116 -1 47 3 72 12 78 10 8 10 11
1 15 -7 2 -13 19 -13 36 0 24 6 35 23 42 13 6 21 17 19 28 -2 9 1 17 5 16 15
-4 68 14 76 25 5 8 10 6 18 -4 8 -11 12 -12 16 -2 2 7 17 19 32 27 16 8 34 28
41 45 7 16 16 30 19 30 4 0 17 9 29 20 12 11 36 23 53 27 27 5 31 4 26 -10 -5
-12 -1 -17 13 -17 11 0 20 7 20 15 0 12 7 14 28 9 15 -4 29 -11 30 -16 2 -4 8
-8 13 -8 6 0 7 5 3 12 -5 7 -2 9 8 5 9 -3 25 3 37 14 12 11 21 16 22 12 0 -4
4 1 9 12 17 39 11 73 -17 100 -27 25 -53 33 -53 17 0 -5 -11 -14 -24 -20 l-24
-11 16 29 c14 24 22 28 42 23 14 -3 27 -9 30 -12 14 -17 52 -44 46 -33 -5 9
-1 15 12 18 28 8 24 48 -5 52 -16 2 -23 -2 -23 -12 0 -9 -4 -16 -10 -16 -20 0
-9 21 20 38 33 19 37 30 16 38 -8 3 -12 13 -9 25 4 14 11 17 29 13 14 -4 24
-2 24 4 0 6 -7 12 -15 14 -12 2 -11 10 6 48 11 24 23 47 28 50 4 3 7 24 7 47
0 27 6 49 18 62 16 18 17 25 7 47 -6 14 -8 30 -5 35 3 6 7 27 9 47 2 20 6 53
9 72 9 52 15 679 7 725 -5 34 -12 43 -45 58 -54 26 -86 19 -113 -23 -29 -46
-54 -71 -64 -65 -10 7 -15 -11 -38 -130 -39 -202 -82 -408 -87 -416 -3 -5 3
-23 12 -40 16 -33 14 -98 -6 -129 -7 -11 -10 -5 -12 25 -1 22 -2 49 -3 60 -1
11 -3 40 -4 65 l-3 45 -12 -29 c-12 -26 -13 -24 -10 30 1 32 -2 64 -7 70 -6 7
-14 52 -20 101 -5 48 -18 121 -28 162 -18 66 -19 98 -14 315 3 153 1 288 -7
371 -21 225 -21 285 -4 332 19 49 28 52 54 21 21 -26 25 -24 34 14 5 22 1 30
-24 48 -26 18 -28 24 -17 41 15 25 34 24 42 -2 4 -12 12 -18 21 -15 13 5 52
-10 64 -25 10 -12 45 -18 58 -10 9 5 -8 15 -49 29 -34 12 -65 19 -69 17 -4 -2
-7 2 -7 10 0 12 6 11 36 -2 36 -15 69 -24 146 -38 36 -7 38 -9 15 -15 -24 -6
-24 -7 15 -24 22 -9 42 -18 45 -19 16 -4 30 -56 26 -92 l-5 -40 12 43 c7 24
15 41 19 37 4 -4 4 2 1 14 -3 12 -1 21 6 21 6 0 11 14 11 30 0 35 -13 42 -111
60 -73 14 -203 50 -197 55 2 2 22 -1 45 -8 35 -9 43 -8 59 7 26 27 95 16 149
-23 24 -17 47 -31 52 -31 4 0 23 -14 42 -30 31 -28 35 -39 52 -133 10 -56 29
-158 44 -227 46 -219 55 -296 65 -552 8 -231 7 -253 -8 -265 -16 -11 -16 -12
2 -13 18 0 18 -7 14 -117 -3 -67 0 -177 7 -253 8 -74 19 -247 26 -385 12 -243
13 -251 39 -300 15 -27 31 -63 34 -79 7 -26 10 -28 44 -23 20 2 65 18 99 34
33 17 72 33 86 37 39 9 58 33 48 59 -15 40 -44 235 -38 251 7 18 54 15 181
-15 80 -18 136 -16 136 6 0 13 -35 48 -65 63 -49 25 -230 82 -261 82 -39 0
-42 -11 -19 -67 17 -41 18 -43 8 -43 -11 0 -33 50 -33 72 0 28 -22 67 -42 73
-23 8 -24 41 0 54 9 6 12 11 6 11 -7 0 -13 31 -17 78 -5 68 -44 278 -62 340
-5 15 -3 22 6 22 10 1 9 3 -2 10 -9 5 -20 27 -24 47 -3 21 -12 56 -20 78 -7
22 -16 63 -19 90 -3 28 -11 68 -16 90 -11 42 -47 212 -60 280 -4 22 -15 69
-24 105 -10 36 -24 94 -31 130 -37 190 -77 393 -89 455 -9 47 -10 72 -4 76 12
8 8 9 -122 44 -67 17 -121 25 -181 25 -80 0 -87 2 -92 21 -3 12 -10 18 -16 14
-6 -3 -11 2 -11 13 0 11 7 22 15 26 8 3 14 11 13 18 -2 8 9 13 30 14 53 2 49
14 -5 14 l-50 0 3 53 c1 28 0 42 -2 30 -9 -40 -24 -25 -24 25 0 26 -3 58 -6
72 -4 20 -3 22 5 10 25 -35 9 14 -29 88 -52 101 -118 286 -137 382 -27 139
-116 434 -139 460 -7 8 -17 27 -23 43 -6 15 -17 27 -24 27 -8 0 -32 13 -54 29
-59 43 -111 67 -171 80 -29 6 -56 10 -60 10 -4 -1 -51 -10 -106 -20z m314
-134 c41 -21 77 -66 100 -124 23 -59 21 -81 -8 -81 -35 0 -72 -38 -72 -74 0
-44 34 -86 68 -85 l27 1 -30 13 -30 14 27 1 c14 0 33 3 41 6 35 13 98 -149 69
-178 -9 -9 -19 -5 -45 20 -35 34 -47 39 -47 20 0 -9 -22 -13 -78 -13 -67 0
-77 3 -74 18 5 32 -14 17 -43 -33 -34 -58 -42 -62 -88 -49 -50 13 -58 29 -55
96 l3 58 62 5 c34 3 65 9 70 14 4 4 -11 5 -36 1 -31 -5 -42 -4 -37 4 4 6 22
11 40 11 19 0 47 3 64 6 28 6 30 9 28 43 -4 58 -10 62 -89 61 -103 -2 -99 -3
-87 19 5 11 10 38 10 61 0 59 21 100 75 148 52 46 74 48 135 17z m138 -252
c-2 -13 -14 -19 -43 -21 l-40 -2 24 20 c29 25 64 27 59 3z m-278 -41 c0 -5
-14 -9 -32 -10 -23 -1 -28 2 -18 8 19 12 50 13 50 2z m248 -243 c3 -26 2 -26
-70 -32 -40 -4 -85 -9 -100 -13 -22 -5 -28 -3 -28 9 0 23 29 35 68 30 34 -6
92 13 92 29 0 22 35 1 38 -23z m-33 -69 c-3 -5 -16 -10 -28 -9 -20 1 -20 2 3
9 14 4 26 8 28 9 2 1 0 -3 -3 -9z m40 -62 c-4 -58 -9 -77 -25 -90 -18 -15 -24
-15 -47 -3 -24 13 -29 12 -36 0 -24 -43 -110 6 -151 85 -29 56 -30 60 -16 60
6 0 18 -12 28 -27 9 -16 28 -29 41 -31 14 -1 32 -9 41 -17 23 -21 47 -19 83 7
41 28 61 49 70 71 13 34 17 16 12 -55z m-942 -722 c-6 -27 -29 -41 -39 -24 -5
8 28 45 42 48 1 0 -1 -11 -3 -24z m87 2 c0 -9 4 -8 10 2 8 12 12 9 22 -17 7
-18 16 -33 20 -33 4 0 5 -7 2 -15 -4 -10 0 -15 12 -16 11 -1 -10 -5 -45 -10
-55 -7 -66 -6 -77 9 -26 34 2 86 49 91 4 1 7 -5 7 -11z m740 -743 c0 -7 -4
-15 -9 -17 -13 -5 -100 -116 -95 -121 3 -2 -3 -7 -12 -11 -13 -5 -15 -2 -9 21
3 15 12 31 18 35 7 4 9 8 4 8 -4 0 0 11 9 25 15 23 15 25 -1 25 -9 0 -35 -16
-58 -35 -31 -27 -43 -32 -54 -24 -10 9 -17 8 -29 -2 -14 -11 -18 -11 -29 4 -7
9 -20 17 -29 17 -10 0 -15 4 -12 9 4 5 1 11 -6 13 -19 7 0 26 33 33 17 4 43 2
59 -5 26 -11 28 -14 15 -27 -16 -15 -11 -38 6 -27 5 3 7 10 4 15 -4 5 1 9 9 9
8 0 21 8 28 18 37 49 158 77 158 37z m90 15 c0 -5 6 -7 14 -4 8 3 17 1 21 -5
7 -12 -8 -14 -42 -5 -13 4 -20 10 -17 15 7 12 24 11 24 -1z m-40 -14 c0 -2
-14 -19 -31 -37 -17 -19 -28 -27 -24 -19 13 26 55 69 55 56z m123 -23 c-7 -2
-19 -2 -25 0 -7 3 -2 5 12 5 14 0 19 -2 13 -5z m-22 -46 c-1 -12 -15 -9 -19 4
-3 6 1 10 8 8 6 -3 11 -8 11 -12z m-3 -70 c2 -10 -3 -17 -12 -17 -10 0 -16 9
-16 21 0 24 23 21 28 -4z m42 12 c0 -5 4 -8 9 -5 14 9 57 -16 68 -41 12 -25 1
-31 -27 -13 -12 8 -12 10 -1 10 8 0 11 3 8 7 -4 3 -16 -3 -27 -15 -26 -27 -31
-27 -54 0 -13 15 -15 23 -8 26 7 2 10 8 6 13 -6 11 4 29 17 29 5 0 9 -5 9 -11z
m-570 -921 c0 6 4 12 9 12 15 0 21 -30 15 -72 -6 -32 -9 -37 -19 -26 -7 7 -16
33 -20 58 -4 33 -3 41 4 30 7 -10 11 -11 11 -2z m1643 -142 c19 -37 26 -61 20
-67 -6 -6 -21 12 -41 51 -18 33 -32 65 -32 71 0 25 25 -1 53 -55z m-2463 -170
c0 -20 -27 -40 -33 -24 -2 7 -2 19 1 26 6 16 32 15 32 -2z"/>
<path d="M2238 2138 c5 -5 16 -8 23 -6 8 3 3 7 -10 11 -17 4 -21 3 -13 -5z"/>
<path d="M1391 2583 c-1 -18 4 -33 9 -33 12 0 12 17 0 45 -7 17 -9 15 -9 -12z"/>
<path d="M1420 2578 c0 -22 16 -24 24 -2 8 21 8 21 -9 21 -8 0 -15 -9 -15 -19z"/>
<path d="M1390 2403 c0 -33 37 -130 46 -121 6 7 -26 129 -38 143 -4 5 -8 -5
-8 -22z"/>
<path d="M1441 2270 c-2 -10 36 -110 44 -118 4 -4 4 4 0 18 -10 31 -43 107
-44 100z"/>
<path d="M1491 2130 c0 -8 4 -22 9 -30 12 -18 12 -2 0 25 -6 13 -9 15 -9 5z"/>
<path d="M3510 1077 c0 -10 8 -17 18 -17 9 0 13 4 7 8 -5 4 -13 11 -17 16 -5
5 -8 2 -8 -7z"/>
<path d="M3106 691 c-4 -6 -4 -11 1 -12 4 0 18 -2 31 -3 22 -3 30 8 13 19 -5
3 -13 0 -17 -6 -5 -8 -9 -8 -14 1 -5 9 -9 9 -14 1z"/>
<path d="M3190 560 c0 -34 -3 -40 -21 -40 -22 0 -23 -18 -5 -61 12 -27 -34
-32 -67 -8 -22 16 -31 18 -43 9 -11 -10 -14 -10 -14 1 -1 11 -3 10 -13 -2 -7
-9 -18 -15 -25 -13 -7 1 -8 0 -2 -3 21 -10 8 -23 -24 -23 -51 0 -53 -16 -3
-23 32 -5 45 -2 55 10 10 15 12 15 12 1 0 -9 12 -18 30 -21 17 -4 30 -11 30
-17 0 -13 -47 -13 -55 0 -4 6 -16 8 -28 4 -12 -4 -39 -6 -59 -5 -20 1 -39 -3
-43 -9 -4 -6 4 -10 19 -10 14 0 27 -4 30 -8 3 -5 -14 -8 -37 -7 -23 1 -51 -2
-62 -6 -32 -11 -1 -18 93 -21 75 -3 83 -1 78 15 -3 11 2 17 14 17 14 0 18 -7
17 -27 -2 -33 -13 -43 -49 -43 -29 0 -46 -15 -26 -23 8 -3 3 -9 -12 -15 -18
-7 -29 -6 -40 3 -21 17 -83 28 -78 13 2 -6 13 -13 24 -14 10 -2 29 -14 41 -28
12 -15 27 -26 33 -26 5 0 10 -10 10 -22 0 -17 -3 -19 -9 -10 -12 20 -99 -62
-103 -97 -2 -18 -8 -25 -19 -23 -9 1 -19 -4 -23 -13 -5 -13 27 -15 259 -15
229 0 265 2 265 15 0 8 -6 15 -12 15 -10 0 -9 3 1 9 11 7 10 10 -4 18 -14 8
-17 25 -17 99 0 64 -3 79 -8 54 l-7 -35 -2 32 c0 17 -5 34 -10 38 -6 3 -16 19
-24 35 -13 25 -13 29 1 35 11 4 12 9 4 17 -6 6 -8 17 -5 26 4 8 -2 21 -12 28
-15 11 -16 18 -8 36 12 28 -5 104 -26 117 -8 6 -12 19 -9 35 3 14 1 26 -3 26
-5 0 -9 -18 -9 -40z m-25 -160 c3 -5 -3 -10 -15 -10 -12 0 -18 5 -15 10 3 6
10 10 15 10 5 0 12 -4 15 -10z m-135 -209 c0 -9 -23 -21 -41 -21 -4 0 -6 7 -3
15 7 16 44 21 44 6z m266 -68 c-11 -11 -17 4 -9 23 7 18 8 18 11 1 2 -10 1
-21 -2 -24z"/>
<path d="M2410 300 c0 -5 5 -10 10 -10 6 0 10 5 10 10 0 6 -4 10 -10 10 -5 0
-10 -4 -10 -10z"/>
</g>
</svg>
